{
date = "2013-05-07 17:01:52 +0000";
designer = "Shinji Pons";
designerURL = www.shinjipons.com;
familyName = "Modulo 42";
fontMaster = (
{
alignmentZones = (
"{128, 129}",
"{128, 129}",
"{128, 129}",
"{0, -2}",
"{0, -2}"
);
ascender = 128;
capHeight = 128;
customParameters = (
{
name = familyName;
value = "Modulo 42";
}
);
descender = 0;
guideLines = (
{
position = "{-25, 43}";
},
{
angle = 90;
position = "{93, 139}";
},
{
angle = 90;
position = "{51, 135}";
},
{
position = "{-22, 85}";
},
{
angle = 90;
position = "{50, 143}";
},
{
angle = 90;
position = "{94, 136}";
},
{
position = "{-22, 86}";
},
{
position = "{-24, 42}";
},
{
angle = 90;
position = "{136, -22}";
},
{
angle = 90;
position = "{8, -30}";
}
);
horizontalStems = (
42
);
id = "940E2F63-624A-4C3D-A909-721782B4CF41";
userData = {
GSOffsetHorizontal = "-20";
GSOffsetProportional = 1;
GSOffsetVertical = 10;
};
verticalStems = (
42
);
weightValue = 42;
widthValue = 128;
xHeight = 128;
}
);
glyphs = (
{
glyphname = A;
lastChange = "2013-06-11 12:53:04 +0200";
layers = (
{
guideLines = (
{
position = "{-9, 59}";
showMeasurement = 1;
},
{
angle = 90;
position = "{62, -10}";
showMeasurement = 1;
}
);
layerId = "940E2F63-624A-4C3D-A909-721782B4CF41";
name = Regular;
paths = (
{
closed = 1;
nodes = (
"116 108 LINE",
"116 20 LINE",
"28 20 LINE",
"28 65 LINE",
"73 65 LINE",
"73 63 LINE",
"30 63 LINE",
"30 22 LINE",
"114 22 LINE",
"114 106 LINE",
"28 106 LINE",
"28 108 LINE"
);
}
);
width = 144;
}
);
unicode = 0041;
},
{
glyphname = B;
lastChange = "2013-06-11 12:53:17 +0200";
layers = (
{
layerId = "940E2F63-624A-4C3D-A909-721782B4CF41";
name = Regular;
paths = (
{
closed = 1;
nodes = (
"116 20 LINE",
"71 20 LINE",
"71 22 LINE",
"114 22 LINE",
"114 63 LINE",
"71 63 LINE",
"71 65 LINE",
"114 65 LINE",
"114 106 LINE",
"30 106 LINE",
"30 20 LINE",
"28 20 LINE",
"28 108 LINE",
"116 108 LINE"
);
}
);
width = 144;
}
);
unicode = 0042;
},
{
glyphname = C;
lastChange = "2013-06-11 12:53:21 +0200";
layers = (
{
layerId = "940E2F63-624A-4C3D-A909-721782B4CF41";
name = Regular;
paths = (
{
closed = 1;
nodes = (
"28 20 LINE",
"28 108 LINE",
"116 108 LINE",
"116 106 LINE",
"30 106 LINE",
"30 22 LINE",
"116 22 LINE",
"116 20 LINE"
);
}
);
width = 144;
}
);
unicode = 0043;
},
{
glyphname = D;
lastChange = "2013-06-11 12:53:30 +0200";
layers = (
{
layerId = "940E2F63-624A-4C3D-A909-721782B4CF41";
name = Regular;
paths = (
{
closed = 1;
nodes = (
"28 20 LINE",
"28 65 LINE",
"30 65 LINE",
"30 22 LINE",
"114 22 LINE",
"114 106 LINE",
"28 106 LINE",
"28 108 LINE",
"116 108 LINE",
"116 20 LINE"
);
}
);
width = 144;
}
);
unicode = 0044;
},
{
glyphname = E;
lastChange = "2013-06-11 12:53:37 +0200";
layers = (
{
layerId = "940E2F63-624A-4C3D-A909-721782B4CF41";
name = Regular;
paths = (
{
closed = 1;
nodes = (
"30 22 LINE",
"116 22 LINE",
"116 20 LINE",
"28 20 LINE",
"28 108 LINE",
"30 108 LINE",
"30 65 LINE",
"114 65 LINE",
"114 106 LINE",
"71 106 LINE",
"71 108 LINE",
"116 108 LINE",
"116 63 LINE",
"30 63 LINE"
);
}
);
width = 144;
}
);
unicode = 0045;
},
{
glyphname = F;
lastChange = "2013-06-11 12:53:56 +0200";
layers = (
{
layerId = "940E2F63-624A-4C3D-A909-721782B4CF41";
name = Regular;
paths = (
{
closed = 1;
nodes = (
"28 108 LINE",
"116 108 LINE",
"116 106 LINE",
"30 106 LINE",
"30 65 LINE",
"116 65 LINE",
"116 63 LINE",
"30 63 LINE",
"30 20 LINE",
"28 20 LINE"
);
}
);
width = 144;
}
);
unicode = 0046;
},
{
glyphname = H;
lastChange = "2013-06-11 12:54:04 +0200";
layers = (
{
layerId = "940E2F63-624A-4C3D-A909-721782B4CF41";
name = Regular;
paths = (
{
closed = 1;
nodes = (
"116 20 LINE",
"114 20 LINE",
"114 63 LINE",
"30 63 LINE",
"30 20 LINE",
"28 20 LINE",
"28 108 LINE",
"30 108 LINE",
"30 65 LINE",
"114 65 LINE",
"114 108 LINE",
"116 108 LINE"
);
}
);
width = 144;
}
);
unicode = 0048;
},
{
glyphname = J;
lastChange = "2013-06-11 12:54:14 +0200";
layers = (
{
layerId = "940E2F63-624A-4C3D-A909-721782B4CF41";
name = Regular;
paths = (
{
closed = 1;
nodes = (
"116 20 LINE",
"28 20 LINE",
"28 22 LINE",
"114 22 LINE",
"114 106 LINE",
"71 106 LINE",
"71 108 LINE",
"116 108 LINE"
);
}
);
width = 144;
}
);
unicode = 004A;
},
{
glyphname = K;
lastChange = "2013-06-11 12:54:20 +0200";
layers = (
{
layerId = "940E2F63-624A-4C3D-A909-721782B4CF41";
name = Regular;
paths = (
{
closed = 1;
nodes = (
"73 65 LINE",
"116 65 LINE",
"116 20 LINE",
"114 20 LINE",
"114 63 LINE",
"30 63 LINE",
"30 20 LINE",
"28 20 LINE",
"28 108 LINE",
"30 108 LINE",
"30 65 LINE",
"71 65 LINE",
"71 108 LINE",
"116 108 LINE",
"116 106 LINE",
"73 106 LINE"
);
}
);
width = 144;
}
);
unicode = 004B;
},
{
glyphname = L;
lastChange = "2013-06-11 12:54:25 +0200";
layers = (
{
layerId = "940E2F63-624A-4C3D-A909-721782B4CF41";
name = Regular;
paths = (
{
closed = 1;
nodes = (
"116 20 LINE",
"28 20 LINE",
"28 108 LINE",
"30 108 LINE",
"30 22 LINE",
"116 22 LINE"
);
}
);
width = 144;
}
);
unicode = 004C;
},
{
glyphname = M;
lastChange = "2013-06-11 12:54:32 +0200";
layers = (
{
layerId = "940E2F63-624A-4C3D-A909-721782B4CF41";
name = Regular;
paths = (
{
closed = 1;
nodes = (
"116 20 LINE",
"114 20 LINE",
"114 106 LINE",
"73 106 LINE",
"73 20 LINE",
"71 20 LINE",
"71 106 LINE",
"30 106 LINE",
"30 20 LINE",
"28 20 LINE",
"28 108 LINE",
"116 108 LINE"
);
}
);
width = 144;
}
);
unicode = 004D;
},
{
glyphname = N;
lastChange = "2013-06-11 12:54:37 +0200";
layers = (
{
layerId = "940E2F63-624A-4C3D-A909-721782B4CF41";
name = Regular;
paths = (
{
closed = 1;
nodes = (
"116 20 LINE",
"71 20 LINE",
"71 106 LINE",
"30 106 LINE",
"30 20 LINE",
"28 20 LINE",
"28 108 LINE",
"73 108 LINE",
"73 22 LINE",
"114 22 LINE",
"114 108 LINE",
"116 108 LINE"
);
}
);
width = 144;
}
);
unicode = 004E;
},
{
glyphname = O;
lastChange = "2013-06-11 12:54:44 +0200";
layers = (
{
layerId = "940E2F63-624A-4C3D-A909-721782B4CF41";
name = Regular;
paths = (
{
closed = 1;
nodes = (
"116 20 LINE",
"28 20 LINE",
"28 108 LINE",
"116 108 LINE"
);
},
{
closed = 1;
nodes = (
"30 106 LINE",
"30 22 LINE",
"114 22 LINE",
"114 106 LINE"
);
}
);
width = 144;
}
);
unicode = 004F;
},
{
glyphname = P;
lastChange = "2013-06-11 12:54:55 +0200";
layers = (
{
layerId = "940E2F63-624A-4C3D-A909-721782B4CF41";
name = Regular;
paths = (
{
closed = 1;
nodes = (
"28 20 LINE",
"28 108 LINE",
"116 108 LINE",
"116 63 LINE",
"71 63 LINE",
"71 65 LINE",
"114 65 LINE",
"114 106 LINE",
"30 106 LINE",
"30 20 LINE"
);
}
);
width = 144;
}
);
unicode = 0050;
},
{
glyphname = Q;
lastChange = "2013-06-11 12:55:02 +0200";
layers = (
{
layerId = "940E2F63-624A-4C3D-A909-721782B4CF41";
name = Regular;
paths = (
{
closed = 1;
nodes = (
"116 20 LINE",
"28 20 LINE",
"28 108 LINE",
"116 108 LINE"
);
},
{
closed = 1;
nodes = (
"30 106 LINE",
"30 22 LINE",
"71 22 LINE",
"71 65 LINE",
"73 65 LINE",
"73 22 LINE",
"114 22 LINE",
"114 106 LINE"
);
}
);
width = 144;
}
);
unicode = 0051;
},
{
glyphname = R;
lastChange = "2013-06-11 12:55:09 +0200";
layers = (
{
layerId = "940E2F63-624A-4C3D-A909-721782B4CF41";
name = Regular;
paths = (
{
closed = 1;
nodes = (
"73 22 LINE",
"116 22 LINE",
"116 20 LINE",
"71 20 LINE",
"71 65 LINE",
"114 65 LINE",
"114 106 LINE",
"30 106 LINE",
"30 20 LINE",
"28 20 LINE",
"28 108 LINE",
"116 108 LINE",
"116 63 LINE",
"73 63 LINE"
);
}
);
width = 144;
}
);
unicode = 0052;
},
{
glyphname = T;
lastChange = "2013-06-11 12:55:13 +0200";
layers = (
{
layerId = "940E2F63-624A-4C3D-A909-721782B4CF41";
name = Regular;
paths = (
{
closed = 1;
nodes = (
"116 106 LINE",
"73 106 LINE",
"73 20 LINE",
"71 20 LINE",
"71 106 LINE",
"28 106 LINE",
"28 108 LINE",
"116 108 LINE"
);
}
);
width = 144;
}
);
unicode = 0054;
},
{
glyphname = V;
lastChange = "2013-06-11 12:55:22 +0200";
layers = (
{
layerId = "940E2F63-624A-4C3D-A909-721782B4CF41";
name = Regular;
paths = (
{
closed = 1;
nodes = (
"30 108 LINE",
"30 22 LINE",
"71 22 LINE",
"71 65 LINE",
"114 65 LINE",
"114 108 LINE",
"116 108 LINE",
"116 63 LINE",
"73 63 LINE",
"73 20 LINE",
"28 20 LINE",
"28 108 LINE"
);
}
);
width = 144;
}
);
unicode = 0056;
},
{
glyphname = X;
lastChange = "2013-06-11 12:55:28 +0200";
layers = (
{
layerId = "940E2F63-624A-4C3D-A909-721782B4CF41";
name = Regular;
paths = (
{
closed = 1;
nodes = (
"73 22 LINE",
"114 22 LINE",
"114 65 LINE",
"116 65 LINE",
"116 20 LINE",
"28 20 LINE",
"28 22 LINE",
"71 22 LINE",
"71 106 LINE",
"30 106 LINE",
"30 63 LINE",
"28 63 LINE",
"28 108 LINE",
"116 108 LINE",
"116 106 LINE",
"73 106 LINE"
);
}
);
width = 144;
}
);
unicode = 0058;
},
{
glyphname = Y;
lastChange = "2013-06-11 12:55:31 +0200";
layers = (
{
layerId = "940E2F63-624A-4C3D-A909-721782B4CF41";
name = Regular;
paths = (
{
closed = 1;
nodes = (
"116 20 LINE",
"28 20 LINE",
"28 22 LINE",
"114 22 LINE",
"114 63 LINE",
"28 63 LINE",
"28 108 LINE",
"30 108 LINE",
"30 65 LINE",
"114 65 LINE",
"114 108 LINE",
"116 108 LINE"
);
}
);
width = 144;
}
);
unicode = 0059;
},
{
glyphname = zero;
lastChange = "2013-06-11 12:55:44 +0200";
layers = (
{
components = (
{
name = O;
transform = "{1, 0, 0, 1, 0, 0}";
}
);
layerId = "940E2F63-624A-4C3D-A909-721782B4CF41";
name = Regular;
paths = (
{
closed = 1;
nodes = (
"73 65 LINE",
"73 63 LINE",
"71 63 LINE",
"71 65 LINE"
);
}
);
width = 144;
}
);
unicode = 0030;
},
{
glyphname = one;
lastChange = "2013-06-11 12:55:48 +0200";
layers = (
{
layerId = "940E2F63-624A-4C3D-A909-721782B4CF41";
name = Regular;
paths = (
{
closed = 1;
nodes = (
"116 20 LINE",
"28 20 LINE",
"28 22 LINE",
"71 22 LINE",
"71 106 LINE",
"28 106 LINE",
"28 108 LINE",
"73 108 LINE",
"73 22 LINE",
"116 22 LINE"
);
}
);
width = 144;
}
);
unicode = 0031;
},
{
glyphname = four;
lastChange = "2013-06-11 12:55:54 +0200";
layers = (
{
layerId = "940E2F63-624A-4C3D-A909-721782B4CF41";
name = Regular;
paths = (
{
closed = 1;
nodes = (
"116 20 LINE",
"114 20 LINE",
"114 63 LINE",
"28 63 LINE",
"28 108 LINE",
"30 108 LINE",
"30 65 LINE",
"114 65 LINE",
"114 108 LINE",
"116 108 LINE"
);
}
);
width = 144;
}
);
unicode = 0034;
},
{
glyphname = seven;
lastChange = "2013-06-11 12:55:58 +0200";
layers = (
{
layerId = "940E2F63-624A-4C3D-A909-721782B4CF41";
name = Regular;
paths = (
{
closed = 1;
nodes = (
"116 63 LINE",
"73 63 LINE",
"73 20 LINE",
"71 20 LINE",
"71 65 LINE",
"114 65 LINE",
"114 106 LINE",
"28 106 LINE",
"28 108 LINE",
"116 108 LINE"
);
}
);
width = 144;
}
);
unicode = 0037;
},
{
glyphname = eight;
lastChange = "2013-06-11 12:56:08 +0200";
layers = (
{
layerId = "940E2F63-624A-4C3D-A909-721782B4CF41";
name = Regular;
paths = (
{
closed = 1;
nodes = (
"116 20 LINE",
"28 20 LINE",
"28 108 LINE",
"116 108 LINE"
);
},
{
closed = 1;
nodes = (
"30 106 LINE",
"30 65 LINE",
"114 65 LINE",
"114 106 LINE"
);
},
{
closed = 1;
nodes = (
"30 63 LINE",
"30 22 LINE",
"114 22 LINE",
"114 63 LINE"
);
}
);
width = 144;
}
);
unicode = 0038;
},
{
glyphname = asterisk;
lastChange = "2013-06-11 12:56:20 +0200";
layers = (
{
components = (
{
name = plus;
transform = "{1, 0, 0, 1, 0, 0}";
}
);
layerId = "940E2F63-624A-4C3D-A909-721782B4CF41";
name = Regular;
paths = (
{
closed = 1;
nodes = (
"28 106 LINE",
"28 108 LINE",
"30 108 LINE",
"30 106 LINE"
);
},
{
closed = 1;
nodes = (
"116 106 LINE",
"114 106 LINE",
"114 108 LINE",
"116 108 LINE"
);
},
{
closed = 1;
nodes = (
"30 22 LINE",
"30 20 LINE",
"28 20 LINE",
"28 22 LINE"
);
},
{
closed = 1;
nodes = (
"116 22 LINE",
"116 20 LINE",
"114 20 LINE",
"114 22 LINE"
);
}
);
width = 144;
}
);
unicode = 002A;
},
{
glyphname = backslash;
lastChange = "2013-06-11 12:56:25 +0200";
layers = (
{
layerId = "940E2F63-624A-4C3D-A909-721782B4CF41";
name = Regular;
paths = (
{
closed = 1;
nodes = (
"30 108 LINE",
"30 20 LINE",
"28 20 LINE",
"28 108 LINE"
);
},
{
closed = 1;
nodes = (
"73 108 LINE",
"73 20 LINE",
"71 20 LINE",
"71 108 LINE"
);
},
{
closed = 1;
nodes = (
"116 108 LINE",
"116 20 LINE",
"114 20 LINE",
"114 108 LINE"
);
}
);
width = 144;
}
);
unicode = 005C;
},
{
glyphname = bullet;
lastChange = "2013-06-11 12:56:29 +0200";
layers = (
{
layerId = "940E2F63-624A-4C3D-A909-721782B4CF41";
name = Regular;
paths = (
{
closed = 1;
nodes = (
"116 106 LINE",
"28 106 LINE",
"28 108 LINE",
"116 108 LINE"
);
},
{
closed = 1;
nodes = (
"116 63 LINE",
"28 63 LINE",
"28 65 LINE",
"116 65 LINE"
);
},
{
closed = 1;
nodes = (
"116 20 LINE",
"28 20 LINE",
"28 22 LINE",
"116 22 LINE"
);
}
);
width = 144;
}
);
unicode = 2022;
},
{
glyphname = comma;
lastChange = "2013-06-11 13:02:33 +0200";
layers = (
{
layerId = "940E2F63-624A-4C3D-A909-721782B4CF41";
name = Regular;
paths = (
{
closed = 1;
nodes = (
"28 20 LINE",
"116 20 LINE",
"116 108 LINE",
"28 108 LINE"
);
},
{
closed = 1;
nodes = (
"114 106 LINE",
"114 22 LINE",
"30 22 LINE",
"30 106 LINE"
);
}
);
width = 144;
}
);
unicode = 002C;
},
{
glyphname = ellipsis;
lastChange = "2013-06-11 13:02:52 +0200";
layers = (
{
layerId = "940E2F63-624A-4C3D-A909-721782B4CF41";
name = Regular;
paths = (
{
closed = 1;
nodes = (
"30 22 LINE",
"28 22 LINE",
"28 20 LINE",
"30 20 LINE"
);
},
{
closed = 1;
nodes = (
"28 108 LINE",
"28 106 LINE",
"116 106 LINE",
"116 108 LINE"
);
},
{
closed = 1;
nodes = (
"28 65 LINE",
"28 63 LINE",
"116 63 LINE",
"116 65 LINE"
);
},
{
closed = 1;
nodes = (
"73 22 LINE",
"71 22 LINE",
"71 20 LINE",
"73 20 LINE"
);
},
{
closed = 1;
nodes = (
"116 22 LINE",
"114 22 LINE",
"114 20 LINE",
"116 20 LINE"
);
}
);
width = 144;
}
);
unicode = 2026;
},
{
glyphname = exclam;
lastChange = "2013-06-11 13:03:08 +0200";
layers = (
{
layerId = "940E2F63-624A-4C3D-A909-721782B4CF41";
name = Regular;
paths = (
{
closed = 1;
nodes = (
"116 108 LINE",
"114 108 LINE",
"114 63 LINE",
"116 63 LINE"
);
},
{
closed = 1;
nodes = (
"73 108 LINE",
"71 108 LINE",
"71 63 LINE",
"73 63 LINE"
);
},
{
closed = 1;
nodes = (
"30 108 LINE",
"28 108 LINE",
"28 63 LINE",
"30 63 LINE"
);
},
{
closed = 1;
nodes = (
"30 22 LINE",
"28 22 LINE",
"28 20 LINE",
"30 20 LINE"
);
},
{
closed = 1;
nodes = (
"116 22 LINE",
"114 22 LINE",
"114 20 LINE",
"116 20 LINE"
);
},
{
closed = 1;
nodes = (
"73 22 LINE",
"71 22 LINE",
"71 20 LINE",
"73 20 LINE"
);
}
);
width = 144;
}
);
unicode = 0021;
},
{
glyphname = numbersign;
lastChange = "2013-06-11 13:06:52 +0200";
layers = (
{
layerId = "940E2F63-624A-4C3D-A909-721782B4CF41";
name = Regular;
paths = (
{
closed = 1;
nodes = (
"28 108 LINE",
"28 20 LINE",
"116 20 LINE",
"116 108 LINE"
);
},
{
closed = 1;
nodes = (
"71 63 LINE",
"71 22 LINE",
"30 22 LINE",
"30 63 LINE"
);
},
{
closed = 1;
nodes = (
"114 63 LINE",
"114 22 LINE",
"73 22 LINE",
"73 63 LINE"
);
},
{
closed = 1;
nodes = (
"71 106 LINE",
"71 65 LINE",
"30 65 LINE",
"30 106 LINE"
);
},
{
closed = 1;
nodes = (
"114 106 LINE",
"114 65 LINE",
"73 65 LINE",
"73 106 LINE"
);
}
);
width = 144;
}
);
unicode = 0023;
},
{
glyphname = question;
lastChange = "2013-06-11 13:07:02 +0200";
layers = (
{
layerId = "940E2F63-624A-4C3D-A909-721782B4CF41";
name = Regular;
paths = (
{
closed = 1;
nodes = (
"28 108 LINE",
"28 106 LINE",
"114 106 LINE",
"114 65 LINE",
"71 65 LINE",
"71 63 LINE",
"116 63 LINE",
"116 108 LINE"
);
},
{
closed = 1;
nodes = (
"73 22 LINE",
"71 22 LINE",
"71 20 LINE",
"73 20 LINE"
);
}
);
width = 144;
}
);
unicode = 003F;
},
{
glyphname = braceleft;
lastChange = "2013-06-11 13:07:07 +0200";
layers = (
{
layerId = "940E2F63-624A-4C3D-A909-721782B4CF41";
name = Regular;
paths = (
{
closed = 1;
nodes = (
"116 106 LINE",
"116 108 LINE",
"71 108 LINE",
"71 65 LINE",
"28 65 LINE",
"28 63 LINE",
"71 63 LINE",
"71 20 LINE",
"116 20 LINE",
"116 22 LINE",
"73 22 LINE",
"73 106 LINE"
);
}
);
width = 144;
}
);
unicode = 007B;
},
{
glyphname = divide;
lastChange = "2013-06-11 13:07:21 +0200";
layers = (
{
components = (
{
name = minus;
transform = "{1, 0, 0, 1, 0, 0}";
}
);
layerId = "940E2F63-624A-4C3D-A909-721782B4CF41";
name = Regular;
paths = (
{
closed = 1;
nodes = (
"71 22 LINE",
"71 20 LINE",
"73 20 LINE",
"73 22 LINE"
);
},
{
closed = 1;
nodes = (
"71 106 LINE",
"73 106 LINE",
"73 108 LINE",
"71 108 LINE"
);
}
);
width = 144;
}
);
unicode = 00F7;
},
{
glyphname = minus;
lastChange = "2013-06-11 13:07:24 +0200";
layers = (
{
layerId = "940E2F63-624A-4C3D-A909-721782B4CF41";
name = Regular;
paths = (
{
closed = 1;
nodes = (
"28 65 LINE",
"28 63 LINE",
"116 63 LINE",
"116 65 LINE"
);
}
);
width = 144;
}
);
unicode = 2212;
},
{
glyphname = plus;
lastChange = "2013-06-11 13:07:28 +0200";
layers = (
{
layerId = "940E2F63-624A-4C3D-A909-721782B4CF41";
name = Regular;
paths = (
{
closed = 1;
nodes = (
"116 65 LINE",
"73 65 LINE",
"73 108 LINE",
"71 108 LINE",
"71 65 LINE",
"28 65 LINE",
"28 63 LINE",
"71 63 LINE",
"71 20 LINE",
"73 20 LINE",
"73 63 LINE",
"116 63 LINE"
);
}
);
width = 144;
}
);
unicode = 002B;
},
{
glyphname = ampersand;
lastChange = "2013-06-11 13:07:30 +0200";
layers = (
{
layerId = "940E2F63-624A-4C3D-A909-721782B4CF41";
name = Regular;
paths = (
{
closed = 1;
nodes = (
"71 108 LINE",
"71 65 LINE",
"28 65 LINE",
"28 20 LINE",
"116 20 LINE",
"116 22 LINE",
"30 22 LINE",
"30 63 LINE",
"116 63 LINE",
"116 108 LINE"
);
},
{
closed = 1;
nodes = (
"114 106 LINE",
"114 65 LINE",
"73 65 LINE",
"73 106 LINE"
);
}
);
width = 144;
}
);
unicode = 0026;
},
{
glyphname = degree;
lastChange = "2013-06-11 13:07:35 +0200";
layers = (
{
layerId = "940E2F63-624A-4C3D-A909-721782B4CF41";
name = Regular;
paths = (
{
closed = 1;
nodes = (
"73 108 LINE",
"28 108 LINE",
"28 63 LINE",
"73 63 LINE"
);
},
{
closed = 1;
nodes = (
"114 22 LINE",
"71 22 LINE",
"71 20 LINE",
"116 20 LINE",
"116 65 LINE",
"114 65 LINE"
);
},
{
closed = 1;
nodes = (
"71 106 LINE",
"71 65 LINE",
"30 65 LINE",
"30 106 LINE"
);
}
